<mxfile host="app.diagrams.net" modified="2024-06-12T13:46:55.010Z" agent="Mozilla/5.0 (Windows NT 10.0; Win64; x64) AppleWebKit/537.36 (KHTML, like Gecko) Chrome/125.0.0.0 Safari/537.36 Edg/125.0.0.0" etag="NV78NpsETGGwJgjUb90S" version="24.5.3" type="onedrive">
  <diagram name="ページ1" id="O7aX3hTP8nIq6OR37aYw">
    <mxGraphModel grid="1" page="1" gridSize="10" guides="1" tooltips="1" connect="1" arrows="1" fold="1" pageScale="1" pageWidth="827" pageHeight="1169" math="0" shadow="0">
      <root>
        <mxCell id="0" />
        <mxCell id="1" parent="0" />
        <mxCell id="FVZ5rqAfC-wQlLblvM75-8" style="edgeStyle=orthogonalEdgeStyle;rounded=0;orthogonalLoop=1;jettySize=auto;html=1;exitX=0.5;exitY=1;exitDx=0;exitDy=0;entryX=0.5;entryY=0;entryDx=0;entryDy=0;" edge="1" parent="1" source="FVZ5rqAfC-wQlLblvM75-1" target="FVZ5rqAfC-wQlLblvM75-3">
          <mxGeometry relative="1" as="geometry" />
        </mxCell>
        <mxCell id="FVZ5rqAfC-wQlLblvM75-1" value="LIST（pp,M,N）関数&lt;div&gt;開始&lt;/div&gt;" style="rounded=0;whiteSpace=wrap;html=1;" vertex="1" parent="1">
          <mxGeometry x="80" y="40" width="120" height="60" as="geometry" />
        </mxCell>
        <mxCell id="FVZ5rqAfC-wQlLblvM75-9" style="edgeStyle=orthogonalEdgeStyle;rounded=0;orthogonalLoop=1;jettySize=auto;html=1;exitX=0.5;exitY=1;exitDx=0;exitDy=0;entryX=0.5;entryY=0;entryDx=0;entryDy=0;" edge="1" parent="1" source="FVZ5rqAfC-wQlLblvM75-3" target="FVZ5rqAfC-wQlLblvM75-4">
          <mxGeometry relative="1" as="geometry" />
        </mxCell>
        <mxCell id="FVZ5rqAfC-wQlLblvM75-14" style="edgeStyle=orthogonalEdgeStyle;rounded=0;orthogonalLoop=1;jettySize=auto;html=1;exitX=1;exitY=0.5;exitDx=0;exitDy=0;entryX=1;entryY=0.5;entryDx=0;entryDy=0;" edge="1" parent="1" source="FVZ5rqAfC-wQlLblvM75-3" target="FVZ5rqAfC-wQlLblvM75-5">
          <mxGeometry relative="1" as="geometry" />
        </mxCell>
        <mxCell id="FVZ5rqAfC-wQlLblvM75-3" value="N==0" style="rhombus;whiteSpace=wrap;html=1;" vertex="1" parent="1">
          <mxGeometry x="65" y="130" width="150" height="80" as="geometry" />
        </mxCell>
        <mxCell id="FVZ5rqAfC-wQlLblvM75-4" value="return [pp]" style="rounded=1;whiteSpace=wrap;html=1;" vertex="1" parent="1">
          <mxGeometry x="80" y="240" width="120" height="60" as="geometry" />
        </mxCell>
        <mxCell id="FVZ5rqAfC-wQlLblvM75-11" style="edgeStyle=orthogonalEdgeStyle;rounded=0;orthogonalLoop=1;jettySize=auto;html=1;exitX=0.5;exitY=1;exitDx=0;exitDy=0;entryX=0.5;entryY=0;entryDx=0;entryDy=0;" edge="1" parent="1" source="FVZ5rqAfC-wQlLblvM75-5" target="FVZ5rqAfC-wQlLblvM75-6">
          <mxGeometry relative="1" as="geometry" />
        </mxCell>
        <mxCell id="FVZ5rqAfC-wQlLblvM75-5" value="i in range(1,M+1)" style="rhombus;whiteSpace=wrap;html=1;" vertex="1" parent="1">
          <mxGeometry x="65" y="330" width="150" height="80" as="geometry" />
        </mxCell>
        <mxCell id="FVZ5rqAfC-wQlLblvM75-12" style="edgeStyle=orthogonalEdgeStyle;rounded=0;orthogonalLoop=1;jettySize=auto;html=1;exitX=0.5;exitY=1;exitDx=0;exitDy=0;entryX=0.5;entryY=0;entryDx=0;entryDy=0;" edge="1" parent="1" source="FVZ5rqAfC-wQlLblvM75-6" target="FVZ5rqAfC-wQlLblvM75-7">
          <mxGeometry relative="1" as="geometry" />
        </mxCell>
        <mxCell id="FVZ5rqAfC-wQlLblvM75-16" style="edgeStyle=orthogonalEdgeStyle;rounded=0;orthogonalLoop=1;jettySize=auto;html=1;exitX=0;exitY=0.5;exitDx=0;exitDy=0;entryX=0;entryY=0.5;entryDx=0;entryDy=0;" edge="1" parent="1" source="FVZ5rqAfC-wQlLblvM75-6" target="FVZ5rqAfC-wQlLblvM75-5">
          <mxGeometry relative="1" as="geometry" />
        </mxCell>
        <mxCell id="FVZ5rqAfC-wQlLblvM75-6" value="retu +=LIST(pp+[i],M,N-1)" style="rounded=1;whiteSpace=wrap;html=1;" vertex="1" parent="1">
          <mxGeometry x="80" y="440" width="120" height="60" as="geometry" />
        </mxCell>
        <mxCell id="FVZ5rqAfC-wQlLblvM75-7" value="終了" style="rounded=0;whiteSpace=wrap;html=1;" vertex="1" parent="1">
          <mxGeometry x="80" y="530" width="120" height="60" as="geometry" />
        </mxCell>
        <mxCell id="FVZ5rqAfC-wQlLblvM75-13" value="True" style="text;html=1;align=center;verticalAlign=middle;resizable=0;points=[];autosize=1;strokeColor=none;fillColor=none;" vertex="1" parent="1">
          <mxGeometry x="135" y="208" width="50" height="30" as="geometry" />
        </mxCell>
        <mxCell id="FVZ5rqAfC-wQlLblvM75-15" value="False" style="text;html=1;align=center;verticalAlign=middle;resizable=0;points=[];autosize=1;strokeColor=none;fillColor=none;" vertex="1" parent="1">
          <mxGeometry x="195" y="138" width="50" height="30" as="geometry" />
        </mxCell>
      </root>
    </mxGraphModel>
  </diagram>
</mxfile>
